<svg width="32" height="33" viewBox="0 0 32 33" fill="none" xmlns="http://www.w3.org/2000/svg">
<g id="call-676a19d3.svg">
<path id="Vector" d="M25.6401 20.8468L22.2534 20.4601C21.8552 20.4133 21.4515 20.4574 21.0728 20.589C20.6941 20.7207 20.3501 20.9364 20.0667 21.2201L17.6134 23.6734C13.8283 21.7484 10.7518 18.6718 8.82672 14.8868L11.2934 12.4201C11.8667 11.8468 12.1467 11.0468 12.0534 10.2334L11.6667 6.87343C11.5911 6.223 11.279 5.62308 10.7897 5.18789C10.3004 4.75271 9.6682 4.51265 9.01339 4.51343H6.70672C5.20005 4.51343 3.94672 5.76676 4.04005 7.27343C4.74672 18.6601 13.8534 27.7534 25.2267 28.4601C26.7334 28.5534 27.9867 27.3001 27.9867 25.7934V23.4868C28.0001 22.1401 26.9867 21.0068 25.6401 20.8468Z" fill="#01B09B"/>
</g>
</svg>
