<svg width="33" height="33" viewBox="0 0 33 33" fill="none" xmlns="http://www.w3.org/2000/svg">
<g id="cart-f6eeb636.svg">
<path id="Vector" d="M23.1937 24.5001C23.901 24.5001 24.5792 24.781 25.0793 25.2811C25.5794 25.7812 25.8604 26.4595 25.8604 27.1667C25.8604 27.874 25.5794 28.5523 25.0793 29.0524C24.5792 29.5525 23.901 29.8334 23.1937 29.8334C22.4865 29.8334 21.8082 29.5525 21.3081 29.0524C20.808 28.5523 20.5271 27.874 20.5271 27.1667C20.5271 25.6867 21.7137 24.5001 23.1937 24.5001ZM1.86035 3.16675H6.22035L7.47369 5.83341H27.1937C27.5473 5.83341 27.8865 5.97389 28.1365 6.22394C28.3866 6.47399 28.527 6.81313 28.527 7.16675C28.527 7.39341 28.4604 7.62008 28.367 7.83341L23.5937 16.4601C23.1404 17.2734 22.2604 17.8334 21.2604 17.8334H11.3271L10.127 20.0067L10.087 20.1667C10.087 20.2552 10.1221 20.3399 10.1847 20.4024C10.2472 20.465 10.332 20.5001 10.4204 20.5001H25.8604V23.1667H9.86035C9.15311 23.1667 8.47483 22.8858 7.97474 22.3857C7.47464 21.8856 7.19369 21.2073 7.19369 20.5001C7.19369 20.0334 7.31369 19.5934 7.51369 19.2201L9.32702 15.9534L4.52702 5.83341H1.86035V3.16675ZM9.86035 24.5001C10.5676 24.5001 11.2459 24.781 11.746 25.2811C12.2461 25.7812 12.5271 26.4595 12.5271 27.1667C12.5271 27.874 12.2461 28.5523 11.746 29.0524C11.2459 29.5525 10.5676 29.8334 9.86035 29.8334C9.15311 29.8334 8.47483 29.5525 7.97474 29.0524C7.47464 28.5523 7.19369 27.874 7.19369 27.1667C7.19369 25.6867 8.38035 24.5001 9.86035 24.5001ZM21.8604 15.1667L25.5671 8.50008H8.71369L11.8604 15.1667H21.8604Z" fill="#17171E"/>
</g>
</svg>
