<svg width="211" height="56" viewBox="0 0 211 56" fill="none" xmlns="http://www.w3.org/2000/svg">
<rect x="0.385417" y="0.385386" width="209.896" height="54.8958" fill="white"/>
<rect x="0.385417" y="0.385386" width="209.896" height="54.8958" stroke="#02AF9B" stroke-width="0.770833"/>
<path d="M16.4506 9.6455L23.4582 29.5157H23.7348L30.7423 9.6455H33.739L25.0717 33.25H22.1212L13.4539 9.6455H16.4506ZM42.8212 33.6188C41.1154 33.6188 39.644 33.2423 38.4069 32.4893C37.1775 31.7286 36.2285 30.6682 35.56 29.3082C34.8992 27.9405 34.5688 26.35 34.5688 24.5366C34.5688 22.7232 34.8992 21.125 35.56 19.7419C36.2285 18.3512 37.1583 17.2678 38.3492 16.4917C39.5479 15.708 40.9464 15.3161 42.5446 15.3161C43.4666 15.3161 44.3771 15.4698 45.2761 15.7771C46.1751 16.0845 46.9935 16.5839 47.7311 17.2755C48.4687 17.9593 49.0565 18.866 49.4945 19.9955C49.9325 21.125 50.1515 22.5158 50.1515 24.1678V25.3203H36.5051V22.9691H47.3853C47.3853 21.9702 47.1856 21.0789 46.786 20.2952C46.3941 19.5114 45.8332 18.8929 45.1033 18.4396C44.381 17.9862 43.5281 17.7595 42.5446 17.7595C41.4612 17.7595 40.5237 18.0285 39.7323 18.5663C38.9486 19.0965 38.3454 19.788 37.9228 20.6409C37.5002 21.4938 37.2889 22.4082 37.2889 23.384V24.9515C37.2889 26.2885 37.5194 27.4218 37.9804 28.3516C38.4491 29.2736 39.0984 29.9767 39.9283 30.4608C40.7581 30.9372 41.7224 31.1754 42.8212 31.1754C43.5358 31.1754 44.1812 31.0755 44.7575 30.8757C45.3415 30.6682 45.8447 30.3609 46.2673 29.9536C46.69 29.5387 47.0165 29.0239 47.247 28.4092L49.8749 29.1468C49.5983 30.0382 49.1334 30.8219 48.4803 31.4981C47.8271 32.1666 47.0204 32.6891 46.0599 33.0656C45.0994 33.4344 44.0199 33.6188 42.8212 33.6188ZM61.9883 15.5466V17.8517H52.8139V15.5466H61.9883ZM55.4878 11.3052H58.2079V28.1787C58.2079 28.9471 58.3193 29.5234 58.5421 29.9075C58.7726 30.284 59.0646 30.5376 59.4181 30.6682C59.7792 30.7912 60.1596 30.8526 60.5591 30.8526C60.8588 30.8526 61.1047 30.8373 61.2968 30.8065C61.4888 30.7681 61.6425 30.7374 61.7578 30.7143L62.311 33.1578C62.1266 33.2269 61.8692 33.2961 61.5388 33.3652C61.2084 33.4421 60.7896 33.4805 60.2825 33.4805C59.5141 33.4805 58.7611 33.3153 58.0235 32.9849C57.2935 32.6545 56.6865 32.1512 56.2024 31.475C55.726 30.7989 55.4878 29.946 55.4878 28.9163V11.3052ZM66.829 9.6455H70.2406L78.2625 29.2391H78.5391L86.5609 9.6455H89.9725V33.25H87.2985V15.3161H87.068L79.6916 33.25H77.1099L69.7335 15.3161H69.503V33.25H66.829V9.6455ZM102.757 33.6188C101.051 33.6188 99.5801 33.2423 98.343 32.4893C97.1136 31.7286 96.1646 30.6682 95.4961 29.3082C94.8353 27.9405 94.5049 26.35 94.5049 24.5366C94.5049 22.7232 94.8353 21.125 95.4961 19.7419C96.1646 18.3512 97.0944 17.2678 98.2853 16.4917C99.484 15.708 100.882 15.3161 102.481 15.3161C103.403 15.3161 104.313 15.4698 105.212 15.7771C106.111 16.0845 106.93 16.5839 107.667 17.2755C108.405 17.9593 108.993 18.866 109.431 19.9955C109.869 21.125 110.088 22.5158 110.088 24.1678V25.3203H96.4412V22.9691H107.321C107.321 21.9702 107.122 21.0789 106.722 20.2952C106.33 19.5114 105.769 18.8929 105.039 18.4396C104.317 17.9862 103.464 17.7595 102.481 17.7595C101.397 17.7595 100.46 18.0285 99.6684 18.5663C98.8847 19.0965 98.2815 19.788 97.8589 20.6409C97.4363 21.4938 97.225 22.4082 97.225 23.384V24.9515C97.225 26.2885 97.4555 27.4218 97.9165 28.3516C98.3852 29.2736 99.0345 29.9767 99.8644 30.4608C100.694 30.9372 101.659 31.1754 102.757 31.1754C103.472 31.1754 104.117 31.0755 104.694 30.8757C105.278 30.6682 105.781 30.3609 106.203 29.9536C106.626 29.5387 106.953 29.0239 107.183 28.4092L109.811 29.1468C109.534 30.0382 109.069 30.8219 108.416 31.4981C107.763 32.1666 106.956 32.6891 105.996 33.0656C105.036 33.4344 103.956 33.6188 102.757 33.6188ZM120.91 33.6188C119.435 33.6188 118.132 33.2461 117.003 32.5008C115.873 31.7478 114.99 30.6874 114.352 29.3197C113.714 27.9443 113.395 26.3192 113.395 24.4444C113.395 22.5849 113.714 20.9713 114.352 19.6036C114.99 18.2359 115.877 17.1794 117.014 16.4341C118.152 15.6888 119.466 15.3161 120.956 15.3161C122.109 15.3161 123.019 15.5082 123.688 15.8924C124.364 16.2689 124.879 16.6992 125.232 17.1833C125.593 17.6597 125.874 18.0515 126.074 18.3589H126.304V9.6455H129.024V33.25H126.396V30.5299H126.074C125.874 30.8526 125.59 31.2599 125.221 31.7516C124.852 32.2357 124.326 32.6698 123.642 33.054C122.958 33.4305 122.047 33.6188 120.91 33.6188ZM121.279 31.1754C122.37 31.1754 123.292 30.8911 124.045 30.3225C124.798 29.7462 125.371 28.9509 125.762 27.9367C126.154 26.9147 126.35 25.7353 126.35 24.3983C126.35 23.0767 126.158 21.9203 125.774 20.9291C125.39 19.9302 124.821 19.1541 124.068 18.6009C123.315 18.04 122.385 17.7595 121.279 17.7595C120.126 17.7595 119.166 18.0554 118.398 18.647C117.637 19.231 117.064 20.0262 116.68 21.0328C116.304 22.0317 116.115 23.1535 116.115 24.3983C116.115 25.6584 116.308 26.8033 116.692 27.8329C117.084 28.8549 117.66 29.6693 118.421 30.2764C119.189 30.8757 120.142 31.1754 121.279 31.1754ZM134.752 9.6455H138.164L146.186 29.2391H146.462L154.484 9.6455H157.896V33.25H155.222V15.3161H154.991L147.615 33.25H145.033L137.657 15.3161H137.426V33.25H134.752V9.6455ZM168.468 33.6649C167.346 33.6649 166.328 33.4536 165.413 33.031C164.499 32.6007 163.773 31.9822 163.235 31.1754C162.697 30.3609 162.428 29.3774 162.428 28.2248C162.428 27.2105 162.628 26.3884 163.028 25.7583C163.427 25.1206 163.961 24.6211 164.63 24.26C165.298 23.8989 166.036 23.6299 166.843 23.4532C167.657 23.2688 168.475 23.1228 169.298 23.0152C170.373 22.8769 171.245 22.7732 171.914 22.704C172.59 22.6272 173.082 22.5004 173.389 22.3237C173.704 22.147 173.862 21.8396 173.862 21.4016V21.3094C173.862 20.1722 173.551 19.2886 172.928 18.6585C172.313 18.0285 171.38 17.7134 170.127 17.7134C168.829 17.7134 167.811 17.9977 167.073 18.5663C166.335 19.1349 165.817 19.7419 165.517 20.3874L162.935 19.4653C163.396 18.3896 164.011 17.5521 164.78 16.9527C165.556 16.3457 166.401 15.9231 167.315 15.6849C168.237 15.439 169.144 15.3161 170.035 15.3161C170.604 15.3161 171.257 15.3853 171.995 15.5236C172.74 15.6542 173.458 15.927 174.15 16.3419C174.849 16.7568 175.429 17.383 175.89 18.2206C176.351 19.0581 176.582 20.1799 176.582 21.586V33.25H173.862V30.8526H173.723C173.539 31.2368 173.232 31.6479 172.801 32.0859C172.371 32.5239 171.799 32.8965 171.084 33.2039C170.369 33.5112 169.497 33.6649 168.468 33.6649ZM168.883 31.2215C169.958 31.2215 170.865 31.0102 171.603 30.5876C172.348 30.1649 172.909 29.6194 173.285 28.9509C173.67 28.2824 173.862 27.5794 173.862 26.8417V24.3522C173.746 24.4905 173.493 24.6173 173.101 24.7325C172.717 24.8401 172.271 24.9362 171.764 25.0207C171.265 25.0975 170.777 25.1667 170.3 25.2281C169.832 25.2819 169.451 25.328 169.159 25.3664C168.452 25.4587 167.792 25.6085 167.177 25.8159C166.57 26.0157 166.078 26.3192 165.702 26.7265C165.333 27.126 165.148 27.6716 165.148 28.3631C165.148 29.3082 165.498 30.0228 166.197 30.5069C166.904 30.9833 167.799 31.2215 168.883 31.2215ZM184.266 22.6003V33.25H181.546V15.5466H184.174V18.3128H184.405C184.82 17.4138 185.45 16.6915 186.295 16.146C187.14 15.5927 188.231 15.3161 189.568 15.3161C190.767 15.3161 191.816 15.562 192.715 16.0537C193.614 16.5378 194.313 17.2755 194.812 18.2667C195.312 19.2502 195.562 20.495 195.562 22.001V33.25H192.842V22.1854C192.842 20.7946 192.48 19.7112 191.758 18.9352C191.036 18.1514 190.045 17.7595 188.784 17.7595C187.916 17.7595 187.14 17.9478 186.456 18.3243C185.78 18.7008 185.246 19.2502 184.854 19.9725C184.462 20.6947 184.266 21.5707 184.266 22.6003Z" fill="#02AF9B"/>
<path d="M17.8893 39.5169L19.9377 45.3251H20.0185L22.0669 39.5169H22.9429L20.4093 46.4166H19.5469L17.0134 39.5169H17.8893ZM24.0176 46.4166V39.5169H28.1817V40.258H24.8531V42.5894H27.9661V43.3306H24.8531V45.6754H28.2356V46.4166H24.0176ZM29.3103 40.258V39.5169H34.4851V40.258H32.3155V46.4166H31.48V40.258H29.3103ZM35.7746 46.4166V39.5169H39.9388V40.258H36.6102V42.5894H39.7231V43.3306H36.6102V45.6754H39.9927V46.4166H35.7746ZM41.4447 46.4166V39.5169H43.7761C44.3151 39.5169 44.7576 39.6089 45.1035 39.7931C45.4494 39.975 45.7054 40.2255 45.8716 40.5444C46.0378 40.8633 46.1209 41.2261 46.1209 41.6326C46.1209 42.0391 46.0378 42.3996 45.8716 42.7141C45.7054 43.0285 45.4505 43.2756 45.1068 43.4553C44.7632 43.6327 44.3241 43.7214 43.7896 43.7214H41.9029V42.9667H43.7626C44.1309 42.9667 44.4274 42.9128 44.652 42.805C44.8789 42.6972 45.0428 42.5445 45.1439 42.3468C45.2472 42.1469 45.2989 41.9089 45.2989 41.6326C45.2989 41.3563 45.2472 41.1149 45.1439 40.9083C45.0406 40.7016 44.8755 40.5422 44.6487 40.4299C44.4218 40.3153 44.122 40.258 43.7491 40.258H42.2802V46.4166H41.4447ZM44.6925 43.3171L46.3904 46.4166H45.4202L43.7491 43.3171H44.6925ZM48.3487 39.5169V46.4166H47.5132V39.5169H48.3487ZM55.4952 39.5169V46.4166H54.6867L50.9268 40.9992H50.8595V46.4166H50.0239V39.5169H50.8325L54.6058 44.9477H54.6732V39.5169H55.4952ZM57.4501 46.4166H56.5742L59.1077 39.5169H59.9701L62.5037 46.4166H61.6277L59.5659 40.6084H59.512L57.4501 46.4166ZM57.7735 43.7214H61.3043V44.4626H57.7735V43.7214ZM63.5784 46.4166V39.5169H65.9097C66.4488 39.5169 66.8913 39.6089 67.2371 39.7931C67.583 39.975 67.8391 40.2255 68.0053 40.5444C68.1715 40.8633 68.2546 41.2261 68.2546 41.6326C68.2546 42.0391 68.1715 42.3996 68.0053 42.7141C67.8391 43.0285 67.5841 43.2756 67.2405 43.4553C66.8969 43.6327 66.4578 43.7214 65.9232 43.7214H64.0366V42.9667H65.8963C66.2646 42.9667 66.5611 42.9128 66.7857 42.805C67.0125 42.6972 67.1765 42.5445 67.2776 42.3468C67.3809 42.1469 67.4325 41.9089 67.4325 41.6326C67.4325 41.3563 67.3809 41.1149 67.2776 40.9083C67.1742 40.7016 67.0092 40.5422 66.7823 40.4299C66.5555 40.3153 66.2556 40.258 65.8828 40.258H64.4139V46.4166H63.5784ZM66.8261 43.3171L68.5241 46.4166H67.5538L65.8828 43.3171H66.8261ZM68.8223 39.5169H69.7791L71.6927 42.7376H71.7735L73.6871 39.5169H74.6439L72.1509 43.5732V46.4166H71.3153V43.5732L68.8223 39.5169ZM78.3928 39.5169H79.3901L81.7349 45.2442H81.8158L84.1606 39.5169H85.1578V46.4166H84.3762V41.1744H84.3088L82.1527 46.4166H81.398L79.2418 41.1744H79.1744V46.4166H78.3928V39.5169ZM86.8331 46.4166V39.5169H90.9972V40.258H87.6686V42.5894H90.7816V43.3306H87.6686V45.6754H91.0511V46.4166H86.8331ZM94.6324 46.4166H92.5032V39.5169H94.7267C95.396 39.5169 95.9688 39.655 96.4449 39.9312C96.9211 40.2053 97.286 40.5994 97.5398 41.1138C97.7936 41.6259 97.9205 42.239 97.9205 42.9533C97.9205 43.672 97.7925 44.2908 97.5365 44.8096C97.2804 45.3262 96.9076 45.7237 96.418 46.0022C95.9283 46.2785 95.3331 46.4166 94.6324 46.4166ZM93.3387 45.6754H94.5785C95.149 45.6754 95.6217 45.5654 95.9968 45.3453C96.3719 45.1252 96.6515 44.8118 96.8357 44.4053C97.0199 43.9988 97.112 43.5148 97.112 42.9533C97.112 42.3963 97.021 41.9167 96.8391 41.5147C96.6572 41.1104 96.3854 40.8005 96.0238 40.5848C95.6622 40.367 95.2118 40.258 94.6728 40.258H93.3387V45.6754ZM100.158 39.5169V46.4166H99.3221V39.5169H100.158ZM107.385 41.673H106.549C106.5 41.4327 106.414 41.2216 106.29 41.0397C106.169 40.8577 106.021 40.705 105.845 40.5815C105.672 40.4557 105.48 40.3614 105.269 40.2985C105.058 40.2356 104.838 40.2041 104.609 40.2041C104.191 40.2041 103.813 40.3097 103.474 40.5208C103.137 40.732 102.868 41.043 102.668 41.454C102.471 41.8651 102.372 42.3693 102.372 42.9667C102.372 43.5642 102.471 44.0684 102.668 44.4794C102.868 44.8905 103.137 45.2015 103.474 45.4127C103.813 45.6238 104.191 45.7293 104.609 45.7293C104.838 45.7293 105.058 45.6979 105.269 45.635C105.48 45.5721 105.672 45.4789 105.845 45.3554C106.021 45.2296 106.169 45.0758 106.29 44.8938C106.414 44.7097 106.5 44.4985 106.549 44.2604H107.385C107.322 44.6131 107.208 44.9286 107.041 45.2071C106.875 45.4857 106.669 45.7226 106.421 45.918C106.174 46.1112 105.897 46.2583 105.589 46.3594C105.284 46.4604 104.957 46.511 104.609 46.511C104.02 46.511 103.497 46.3672 103.039 46.0797C102.581 45.7922 102.22 45.3835 101.957 44.8534C101.695 44.3233 101.563 43.6945 101.563 42.9667C101.563 42.239 101.695 41.6101 101.957 41.0801C102.22 40.55 102.581 40.1413 103.039 39.8538C103.497 39.5663 104.02 39.4225 104.609 39.4225C104.957 39.4225 105.284 39.4731 105.589 39.5741C105.897 39.6752 106.174 39.8234 106.421 40.0188C106.669 40.212 106.875 40.4478 107.041 40.7263C107.208 41.0026 107.322 41.3182 107.385 41.673ZM109.018 46.4166H108.142L110.676 39.5169H111.538L114.072 46.4166H113.196L111.134 40.6084H111.08L109.018 46.4166ZM109.342 43.7214H112.872V44.4626H109.342V43.7214ZM115.146 46.4166V39.5169H115.982V45.6754H119.189V46.4166H115.146ZM123.151 39.5169H124.148L126.493 45.2442H126.574L128.919 39.5169H129.916V46.4166H129.135V41.1744H129.067L126.911 46.4166H126.156L124 41.1744H123.933V46.4166H123.151V39.5169ZM131.874 46.4166H130.998L133.532 39.5169H134.394L136.928 46.4166H136.052L133.99 40.6084H133.936L131.874 46.4166ZM132.198 43.7214H135.729V44.4626H132.198V43.7214ZM143.474 39.5169V46.4166H142.665L138.906 40.9992H138.838V46.4166H138.003V39.5169H138.811L142.585 44.9477H142.652V39.5169H143.474ZM149.674 39.5169H150.509V44.0853C150.509 44.5569 150.398 44.9781 150.176 45.3486C149.956 45.717 149.645 46.0079 149.243 46.2212C148.841 46.4323 148.369 46.5379 147.828 46.5379C147.286 46.5379 146.815 46.4323 146.413 46.2212C146.011 46.0079 145.698 45.717 145.476 45.3486C145.256 44.9781 145.146 44.5569 145.146 44.0853V39.5169H145.981V44.0179C145.981 44.3548 146.056 44.6546 146.204 44.9174C146.352 45.1779 146.563 45.3835 146.837 45.5339C147.113 45.6822 147.444 45.7563 147.828 45.7563C148.212 45.7563 148.542 45.6822 148.818 45.5339C149.094 45.3835 149.306 45.1779 149.451 44.9174C149.6 44.6546 149.674 44.3548 149.674 44.0179V39.5169ZM152.178 46.4166V39.5169H156.315V40.258H153.013V42.5894H156.005V43.3306H153.013V46.4166H152.178ZM157.167 46.4166H156.291L158.825 39.5169H159.687L162.221 46.4166H161.345L159.283 40.6084H159.229L157.167 46.4166ZM157.491 43.7214H161.022V44.4626H157.491V43.7214ZM168.524 41.673H167.688C167.639 41.4327 167.552 41.2216 167.429 41.0397C167.307 40.8577 167.159 40.705 166.984 40.5815C166.811 40.4557 166.619 40.3614 166.408 40.2985C166.197 40.2356 165.977 40.2041 165.747 40.2041C165.33 40.2041 164.951 40.3097 164.612 40.5208C164.275 40.732 164.007 41.043 163.807 41.454C163.609 41.8651 163.51 42.3693 163.51 42.9667C163.51 43.5642 163.609 44.0684 163.807 44.4794C164.007 44.8905 164.275 45.2015 164.612 45.4127C164.951 45.6238 165.33 45.7293 165.747 45.7293C165.977 45.7293 166.197 45.6979 166.408 45.635C166.619 45.5721 166.811 45.4789 166.984 45.3554C167.159 45.2296 167.307 45.0758 167.429 44.8938C167.552 44.7097 167.639 44.4985 167.688 44.2604H168.524C168.461 44.6131 168.346 44.9286 168.18 45.2071C168.014 45.4857 167.807 45.7226 167.56 45.918C167.313 46.1112 167.036 46.2583 166.728 46.3594C166.422 46.4604 166.096 46.511 165.747 46.511C165.159 46.511 164.636 46.3672 164.178 46.0797C163.719 45.7922 163.359 45.3835 163.096 44.8534C162.833 44.3233 162.702 43.6945 162.702 42.9667C162.702 42.239 162.833 41.6101 163.096 41.0801C163.359 40.55 163.719 40.1413 164.178 39.8538C164.636 39.5663 165.159 39.4225 165.747 39.4225C166.096 39.4225 166.422 39.4731 166.728 39.5741C167.036 39.6752 167.313 39.8234 167.56 40.0188C167.807 40.212 168.014 40.4478 168.18 40.7263C168.346 41.0026 168.461 41.3182 168.524 41.673ZM169.496 40.258V39.5169H174.671V40.258H172.502V46.4166H171.666V40.258H169.496ZM180.489 39.5169H181.324V44.0853C181.324 44.5569 181.213 44.9781 180.991 45.3486C180.771 45.717 180.459 46.0079 180.057 46.2212C179.655 46.4323 179.184 46.5379 178.642 46.5379C178.101 46.5379 177.629 46.4323 177.227 46.2212C176.825 46.0079 176.513 45.717 176.291 45.3486C176.071 44.9781 175.961 44.5569 175.961 44.0853V39.5169H176.796V44.0179C176.796 44.3548 176.87 44.6546 177.019 44.9174C177.167 45.1779 177.378 45.3835 177.652 45.5339C177.928 45.6822 178.258 45.7563 178.642 45.7563C179.027 45.7563 179.357 45.6822 179.633 45.5339C179.909 45.3835 180.12 45.1779 180.266 44.9174C180.415 44.6546 180.489 44.3548 180.489 44.0179V39.5169ZM182.993 46.4166V39.5169H185.324C185.863 39.5169 186.306 39.6089 186.651 39.7931C186.997 39.975 187.253 40.2255 187.42 40.5444C187.586 40.8633 187.669 41.2261 187.669 41.6326C187.669 42.0391 187.586 42.3996 187.42 42.7141C187.253 43.0285 186.998 43.2756 186.655 43.4553C186.311 43.6327 185.872 43.7214 185.338 43.7214H183.451V42.9667H185.311C185.679 42.9667 185.975 42.9128 186.2 42.805C186.427 42.6972 186.591 42.5445 186.692 42.3468C186.795 42.1469 186.847 41.9089 186.847 41.6326C186.847 41.3563 186.795 41.1149 186.692 40.9083C186.589 40.7016 186.423 40.5422 186.197 40.4299C185.97 40.3153 185.67 40.258 185.297 40.258H183.828V46.4166H182.993ZM186.24 43.3171L187.938 46.4166H186.968L185.297 43.3171H186.24ZM189.061 46.4166V39.5169H193.225V40.258H189.897V42.5894H193.01V43.3306H189.897V45.6754H193.279V46.4166H189.061Z" fill="#02AF9B"/>
</svg>
