<svg width="96" height="87" viewBox="0 0 96 87" fill="none" xmlns="http://www.w3.org/2000/svg">
<g id="Traced Image">
<path id="Vector" fill-rule="evenodd" clip-rule="evenodd" d="M64.3712 7.8484C64.3083 8.03362 64.0475 8.63049 63.7917 9.17493C63.458 9.88546 63.3141 10.5244 63.2819 11.4393C63.2573 12.1403 63.139 12.8328 63.0194 12.9785C62.8959 13.1287 62.4842 13.2431 62.0665 13.2431C61.4329 13.2431 61.2404 13.1385 60.6769 12.4877C59.0254 10.5802 58.7128 10.3377 57.6168 10.1156C57.0366 9.99784 55.9716 9.61103 55.2503 9.25586C54.0476 8.66378 53.885 8.62809 53.2897 8.82656C52.8869 8.96083 52.3133 9.42599 51.7777 10.053C51.3032 10.6087 50.5767 11.2434 50.1634 11.4636C49.14 12.0084 47.3009 14.1314 46.6389 15.5318C45.8543 17.1916 45.3379 19.5283 45.482 20.766L45.5984 21.7656L46.0496 21.2361C46.4757 20.736 46.495 20.6177 46.3986 19.1152C46.3055 17.6647 46.3381 17.4366 46.7678 16.5331L47.2391 15.5423L47.3878 16.462C47.4695 16.9678 47.5535 18.0933 47.5743 18.9629C47.6082 20.3845 47.5626 20.6295 47.1229 21.3867C46.854 21.8503 46.6354 22.3802 46.6372 22.5645C46.6392 22.7488 46.9262 23.8023 47.2748 24.9057C47.6237 26.0091 47.9091 27.0944 47.9091 27.3173C47.9091 27.6688 48.0359 27.7379 48.8655 27.8385C50.9301 28.0889 51.4613 27.9335 50.5658 27.341C50.3133 27.174 49.9555 26.5963 49.7267 25.9863C49.1263 24.3854 49.3016 22.4374 50.2029 20.6924C50.6889 19.7518 50.8935 19.0938 50.9623 18.2509L51.0565 17.0969L51.4994 17.3899C52.2304 17.8736 53.3055 18.1876 54.3805 18.2316C54.9386 18.2544 55.4344 18.337 55.4824 18.4153C55.6252 18.6485 55.0351 24.8252 54.7466 26.1184C54.3675 27.8172 54.3528 27.7738 55.3062 27.7738C56.0392 27.7738 56.127 27.7331 56.0002 27.4519C55.5964 26.556 55.7146 24.9405 56.4017 21.9672C56.7836 20.315 57.1298 18.9975 57.1712 19.0392C57.2125 19.081 57.1091 19.9666 56.9413 21.0073C56.7397 22.2584 56.6546 23.6785 56.6903 25.1987L56.744 27.4979L57.6093 27.554C58.5496 27.6149 58.7363 27.4015 58.0277 27.0754C57.6262 26.8907 57.5752 26.7427 57.5268 25.6205C57.4561 23.989 57.6129 22.9722 58.3915 20.012C59.2475 16.7585 59.3169 16.6884 61.702 16.6641C63.1175 16.6498 63.6085 16.5742 64.0101 16.3084C64.7027 15.8502 65.3263 14.3732 65.576 12.5994C65.8525 10.6359 65.907 10.4842 66.3355 10.4842C66.5377 10.4842 67.229 10.3427 67.8715 10.1698C69.1743 9.81924 69.4399 9.46738 68.9599 8.72779C68.7313 8.37556 68.5103 8.27697 67.9492 8.27697C67.5543 8.27697 66.8799 8.16035 66.4506 8.01781C64.9357 7.51494 64.4969 7.47925 64.3712 7.8484ZM30.7858 14.3598C20.9508 19.1759 14.3612 27.8185 12.354 38.5338C11.9978 40.4357 11.9423 41.3136 11.9528 44.8795C11.9639 48.6218 12.0115 49.2422 12.4496 51.3607C14.7268 62.3722 21.4778 71.3735 30.8271 75.8646C35.3801 78.0517 39.3092 78.907 44.8023 78.907C48.3519 78.907 51.6717 78.4906 55.0931 77.616C56.289 77.3103 57.3069 77.0206 57.355 76.972C57.4934 76.8321 57.318 76.858 54.9626 77.3266C51.793 77.9573 51.2072 78.0394 51.5979 77.7981C52.022 77.5361 51.9999 77.2433 51.4995 76.4956C51.27 76.1526 50.9015 75.4169 50.6807 74.8605C50.2974 73.8952 49.5486 71.166 49.5486 70.7345C49.5486 70.596 50.2964 70.5259 51.8712 70.5171C54.0646 70.5048 54.2617 70.4726 55.4157 69.9383C56.4952 69.4385 56.6489 69.4084 56.7325 69.6795C57.1193 70.9326 57.5587 73.0587 57.561 73.6885C57.565 74.8046 57.811 74.9112 59.2515 74.4216C59.924 74.1932 60.5345 73.9454 60.6079 73.8713C60.6813 73.7972 60.529 73.348 60.2694 72.8731C59.8027 72.0189 59.4371 70.0782 59.743 70.0782C59.9774 70.0782 60.9239 71.3672 61.1986 72.0603C61.3462 72.4328 61.3946 72.9774 61.3256 73.4858C61.2265 74.2169 61.2535 74.3087 61.5681 74.3087C62.0517 74.3087 63.7863 73.6101 64.1185 73.2814C64.3362 73.066 64.3453 72.9524 64.1653 72.6958C64.0426 72.5207 63.6546 71.8208 63.3032 71.1404C62.8184 70.202 62.6643 69.6789 62.6643 68.9732C62.6643 68.3454 62.5162 67.7476 62.2093 67.1359C61.8191 66.3586 61.2593 63.7103 61.4455 63.5225C61.5318 63.4353 63.1605 67.3029 63.2766 67.871C63.4669 68.8019 63.8517 69.7091 64.0296 69.646C64.3448 69.5343 64.2031 68.0734 63.8254 67.5424C63.6302 67.2679 63.237 66.4226 62.9516 65.6639C62.6661 64.9051 62.145 63.6058 61.7934 62.7767C61.1983 61.3727 61.0817 61.2237 60.0993 60.6114C58.7611 59.7775 57.7995 59.4146 56.1975 59.139C54.7216 58.885 54.6202 58.9119 51.4613 60.3913C48.7203 61.6749 47.6652 61.7581 46.1441 60.8101C44.9204 60.0475 44.6256 60.0006 44.3059 60.5174C44.1795 60.7218 43.4835 61.2684 42.7592 61.7321C41.2339 62.7086 40.8641 63.1201 40.7146 64.0085C40.6149 64.6011 40.8506 67.9343 41.0849 69.2441C41.1745 69.7451 41.1102 69.8448 40.4577 70.2162C40.0579 70.4439 39.6034 70.63 39.448 70.63C39.2924 70.63 39.1653 70.7128 39.1653 70.814C39.1653 71.09 40.0959 71.0332 40.6889 70.7209C40.976 70.5697 41.2321 70.4461 41.2581 70.4461C41.2844 70.4461 41.3578 70.715 41.4215 71.0439C41.6083 72.0071 42.2697 73.1052 42.9242 73.5384C43.674 74.0348 43.8031 74.0366 44.4655 73.5604C45.1209 73.0892 45.1808 72.2063 44.6074 71.4702C44.27 71.0373 44.1325 70.9883 43.5388 71.0897C42.9333 71.1929 42.8446 71.1583 42.7442 70.7799C42.5003 69.8603 42.6098 69.3421 43.0954 69.1188C43.3534 69.0002 43.6862 68.6656 43.8348 68.3754C43.9835 68.0851 44.1957 67.878 44.3066 67.9154C44.4176 67.9527 44.9278 68.6857 45.4408 69.5441C46.2225 70.8524 46.4593 71.4757 46.9048 73.3966C47.197 74.657 47.4812 76.2374 47.5364 76.9087L47.6364 78.1291L46.6839 78.2285C44.9679 78.4072 39.0245 77.8308 38.5723 77.4418C38.4967 77.3767 38.5476 76.1692 38.6853 74.7584C38.9472 72.0748 38.833 68.6187 38.459 67.9132C38.3536 67.7143 38.3107 67.5078 38.3638 67.4541C38.5068 67.3099 36.4232 65.8478 36.0747 65.8478C35.1961 65.8478 29.6303 62.5285 29.2015 61.7489C29.0784 61.5248 28.8038 60.8242 28.5916 60.1919C28.3794 59.5597 28.1333 59.0423 28.0448 59.0423C27.7644 59.0423 26.5689 57.8881 26.1417 57.2048C25.7431 56.5671 25.3879 55.5434 23.206 48.7421C22.638 46.9717 22.0658 45.3461 21.9345 45.1297C21.7275 44.7888 21.743 44.6928 22.0509 44.4114C22.4454 44.0509 22.5345 43.2234 22.1786 43.2254C22.0534 43.226 21.7078 43.3884 21.4107 43.5859C20.912 43.9179 20.8459 43.9227 20.5455 43.6483C20.123 43.2622 20.1325 43.1895 20.6834 42.5894C21.0486 42.1915 21.1016 42.0304 20.9344 41.8268C20.6535 41.485 19.7826 41.4779 19.9119 41.8183C19.964 41.9555 19.8425 42.3074 19.6418 42.6L19.2767 43.1321L19.3669 42.3504C19.4567 41.5711 19.4552 41.5687 18.8592 41.5687H18.2613L18.3537 42.3964C18.428 43.063 18.3908 43.2241 18.1624 43.2241C18.0063 43.2241 17.6882 43.4607 17.4554 43.7496C17.2228 44.0387 16.6308 44.4732 16.1397 44.7153C15.6487 44.9573 14.9268 45.4451 14.5357 45.7992C13.8644 46.4067 13.8357 46.4755 14.0269 47.0188L14.2295 47.5949L16.5417 47.5018C18.6437 47.4172 18.8805 47.44 19.1452 47.7534C19.5186 48.1958 19.9717 50.4652 20.2236 53.1555C20.3688 54.7068 20.6668 56.1277 21.3421 58.4896L22.2627 61.7093L22.1501 64.2844C22.0884 65.7006 22.0359 67.0663 22.0336 67.3193C22.0294 67.7706 22.019 67.7673 21.4694 67.1353C17.1031 62.1143 13.9974 54.9095 13.3028 48.1903C11.8189 33.8336 18.6794 21.1007 31.6055 14.2206C34.0764 12.9054 33.5856 12.9889 30.7858 14.3598ZM36.4328 14.0918C36.4328 14.154 36.76 14.5057 37.1597 14.8735C38.0173 15.6626 38.2692 16.5811 37.7781 17.1291C37.6089 17.318 37.032 17.6119 36.4962 17.7824C35.9605 17.9531 35.522 18.169 35.522 18.2627C35.522 18.3561 35.6654 18.3765 35.8408 18.3081C36.3621 18.1045 37.1615 17.9711 37.1615 18.0879C37.1615 18.1477 36.9081 18.488 36.5984 18.8441C36.1749 19.3311 35.9603 19.4525 35.7331 19.3335C35.5668 19.2465 34.8132 19.1371 34.0583 19.0904C32.6063 19.0004 31.9298 18.703 31.5284 17.9781C31.4028 17.7513 31.0628 17.3744 30.7732 17.1409L30.2467 16.716L29.7438 17.1868C29.4673 17.4456 29.1377 17.6575 29.0115 17.6575C28.5557 17.6575 28.7945 18.2329 29.3285 18.4208C29.6855 18.5465 29.875 18.7383 29.875 18.9745C29.875 19.1731 30.0724 19.765 30.3136 20.29C30.9189 21.6062 31.0732 22.6743 30.7032 22.9844C30.485 23.1672 30.4661 23.284 30.6236 23.4758C31.1266 24.0876 31.558 23.6171 31.7844 22.2098C31.8937 21.5298 31.9073 21.5199 32.7522 21.5017C33.2237 21.4916 33.8131 21.4261 34.0622 21.3562C34.4396 21.2501 34.5837 21.331 34.9274 21.8425C35.3785 22.5137 35.4462 22.9035 35.1444 23.0918C34.8792 23.2573 35.6455 23.7895 35.9687 23.6642C36.1049 23.6114 36.2727 23.3087 36.3417 22.9912C36.458 22.4574 36.4909 22.4359 36.7831 22.703C37.2194 23.1015 37.5258 23.064 37.5258 22.6117C37.5258 22.105 36.8186 20.4174 36.4128 19.9556C36.0966 19.5958 36.114 19.5653 37.122 18.714C38.2198 17.787 38.6634 17.6772 39.9049 18.0254C40.3506 18.1505 40.7494 18.4723 41.18 19.0547C41.5247 19.5208 42.0322 20.0648 42.3076 20.2637L42.8085 20.6254V19.8997C42.8085 18.936 42.3967 17.9871 41.6879 17.3183C41.1385 16.7998 41.1252 16.7559 41.4254 16.4528C41.6948 16.1807 41.7043 16.0957 41.4893 15.8789C41.3507 15.7387 40.9375 15.6004 40.5716 15.5712C40.2054 15.5421 39.7597 15.3882 39.5812 15.2289C39.4025 15.0698 38.6572 14.7234 37.9247 14.4593C36.4742 13.9358 36.4328 13.9257 36.4328 14.0918ZM57.2138 18.5005C57.2226 18.7148 57.2657 18.7584 57.3238 18.6118C57.3765 18.479 57.3699 18.3202 57.3095 18.2592C57.249 18.1981 57.206 18.3066 57.2138 18.5005ZM62.858 20.1866C62.9596 20.4649 63.2877 20.8993 63.5873 21.1522L64.132 21.6121L62.8662 21.6128C61.5176 21.6135 61.2806 21.7046 61.452 22.156C61.5329 22.3686 61.8369 22.4398 62.6643 22.4398C64.3741 22.4398 64.3792 23.1192 62.6758 24.0036C61.8411 24.4367 60.6605 25.9032 60.6605 26.5067C60.6605 26.6654 60.9116 27.3024 61.2181 27.922C61.7131 28.9221 61.8504 29.063 62.4384 29.1744C62.9654 29.2741 63.2713 29.2028 63.9302 28.8255C64.688 28.392 64.8452 28.2189 65.2101 27.4183C65.276 27.2733 65.4476 27.0962 65.5911 27.0246C65.7347 26.9531 66.1542 26.7454 66.5231 26.5632C66.8922 26.3811 67.2406 26.103 67.2975 25.9451C67.3543 25.7875 67.4485 25.5552 67.507 25.4287C67.5765 25.278 67.4589 25.1987 67.1665 25.1987C66.7812 25.1987 66.7062 25.095 66.6195 24.443C66.5643 24.0273 66.5641 23.4069 66.6193 23.0642C66.7167 22.4576 66.6925 22.4289 65.6932 21.9669C64.9623 21.6292 64.5115 21.2646 64.1273 20.7007C63.3853 19.6118 62.5202 19.2614 62.858 20.1866ZM25.5754 21.1947C25.3761 21.4243 25.1006 21.8396 24.9631 22.1179C24.7265 22.5963 23.8969 22.9879 23.1141 22.9905C22.7218 22.9919 21.9049 23.8365 21.477 24.6832C21.0754 25.4785 21.0466 26.1427 21.3497 27.6248C21.5377 28.5436 21.6257 28.6935 21.9765 28.6935C22.2011 28.6935 22.4354 28.7762 22.4973 28.8774C22.687 29.1873 23.2165 29.0821 23.4615 28.6859C23.5892 28.4795 23.6421 28.2261 23.5788 28.1229C23.5156 28.0197 23.8687 27.4644 24.3632 26.8889C24.8578 26.3134 25.364 25.6494 25.4883 25.4134C25.6978 25.0155 25.7378 25.0058 26.0379 25.28C26.3352 25.5517 26.3814 25.5517 26.6044 25.2804C26.796 25.0472 26.8013 24.9105 26.629 24.632C26.441 24.328 26.4616 24.2791 26.7767 24.2791C27.3511 24.2791 27.2378 23.5814 26.6037 23.2139C26.1577 22.9557 26.086 22.8223 26.1874 22.4409C26.3745 21.7366 26.3452 20.9192 26.13 20.8443C26.0242 20.8075 25.7745 20.9652 25.5754 21.1947ZM42.5499 22.9678C42.4959 23.0559 42.2156 23.1757 41.9269 23.234C41.6383 23.2923 41.1428 23.5603 40.8261 23.8294C40.5091 24.0986 39.6633 24.5248 38.9465 24.7766C37.7278 25.2044 37.3812 25.2368 33.6224 25.2729C29.8908 25.3089 29.5576 25.3395 28.9895 25.6979C28.1521 26.226 27.4664 27.5192 26.8643 29.7051C26.5858 30.7167 26.1922 31.7305 25.9898 31.9583C25.4559 32.5586 24.6722 32.5021 24.0798 31.8203C23.522 31.1786 23.3171 31.1267 23.3171 31.6277C23.3171 32.6927 24.319 33.4281 25.5265 33.2491C26.1479 33.1569 26.2514 33.2964 26.5834 34.6713C26.7057 35.1771 26.935 35.7357 27.0933 35.9128C27.3764 36.2294 28.2938 36.3417 28.8466 36.1275C29.2173 35.9838 29.0164 35.5098 28.5009 35.3121C28.1963 35.1951 28.038 34.9203 27.8996 34.2684C27.7203 33.4253 27.7345 33.3646 28.2012 32.9765C28.7131 32.5507 29.1975 32.394 28.8184 32.7768C28.4865 33.1119 28.5603 33.5237 29.0332 33.9762C29.268 34.2009 29.738 34.7572 30.0773 35.2122C30.6096 35.9253 30.7869 36.0401 31.3629 36.045C31.7305 36.0482 32.1593 36.0011 32.3159 35.9404C32.7611 35.7679 32.3547 35.1968 31.6101 34.9486C31.2603 34.832 30.7987 34.4881 30.5843 34.1842L30.1946 33.6317L30.7486 33.0479C31.0534 32.7267 31.4966 32.0916 31.7337 31.6364L32.1647 30.8087L32.887 31.0544C33.3574 31.2146 33.9587 31.2588 34.6112 31.181C35.1622 31.1153 36.002 31.0149 36.4775 30.9578C37.8282 30.7956 37.9025 30.9328 37.877 33.5421C37.8555 35.7294 37.8626 35.7699 38.3383 36.183C39.0059 36.7629 39.693 36.7214 40.3076 36.0638L40.8113 35.5251L40.3803 35.0555C39.9504 34.587 39.9499 34.5815 40.1934 32.8053C40.3277 31.8258 40.5481 30.8519 40.6834 30.6408C40.8186 30.4296 40.9884 30.0086 41.0607 29.7051C41.1328 29.4016 41.4287 28.8527 41.7181 28.4856C42.0074 28.1183 42.2972 27.6044 42.3621 27.3436C42.5329 26.6562 42.8712 26.4513 43.7237 26.5186C44.4274 26.5742 44.5047 26.5321 44.873 25.8911L45.2677 25.2037L44.7693 24.6955C44.4952 24.4159 43.9937 23.8768 43.6549 23.4974C43.0408 22.81 42.7359 22.6638 42.5499 22.9678ZM71.367 24.3219C70.9007 24.6885 70.8502 24.6935 70.5331 24.4036C70.0325 23.9463 69.9751 24.0056 69.9148 25.0418C69.8791 25.6577 69.7643 26.0356 69.5865 26.1232C69.4362 26.1971 69.0014 26.3928 68.6202 26.5578C67.7835 26.92 67.468 27.5772 67.2904 29.3275C67.1812 30.4037 67.0976 30.6119 66.6371 30.9556C65.582 31.7434 66.3912 32.8976 68.1157 33.065C69.2845 33.1783 69.3297 32.8866 68.2203 32.391C66.7898 31.7521 67.2171 31.3561 69.4044 31.2937C70.256 31.2694 70.9801 31.171 71.0134 31.075C71.0469 30.9792 71.2313 30.9006 71.4233 30.9006C71.6153 30.9006 71.7725 30.7765 71.7725 30.6247C71.7725 30.473 71.6982 30.3488 71.6074 30.3488C71.5165 30.3488 71.3858 29.9328 71.3163 29.4242C71.224 28.7462 71.2619 28.3896 71.4584 28.0868C71.8477 27.4867 72.3283 23.9005 72.0164 23.9215C71.9322 23.927 71.64 24.1073 71.367 24.3219ZM44.6302 28.685C44.4799 28.7876 44.0529 28.873 43.6811 28.8746C42.9036 28.8778 42.2972 29.4204 41.7114 30.6369C41.2767 31.5394 41.2589 32.1043 41.6365 33.0168C41.8139 33.4452 41.8822 33.9587 41.8172 34.3727C41.7571 34.7551 41.8223 35.3527 41.9704 35.7749C42.2176 36.4802 42.2608 36.5106 43.0193 36.5106C43.555 36.5106 43.7957 36.4363 43.7649 36.2807C43.7398 36.1543 43.8013 36.0508 43.9015 36.0508C44.0017 36.0508 44.0837 36.1276 44.0837 36.2216C44.0837 36.614 44.6968 36.9704 45.3718 36.9704C46.2095 36.9704 46.3625 36.5373 45.6419 36.2058C45.0103 35.9152 44.5285 34.6551 44.8307 34.0847C45.1129 33.5522 45.1652 33.5542 46.3141 34.1423C47.1335 34.5615 47.4601 34.6207 48.8037 34.594C49.6542 34.5771 50.4556 34.4748 50.5845 34.3669C51.0777 33.9536 51.3507 34.3417 51.4068 35.5357L51.4613 36.6945L52.2355 36.751C52.6936 36.7845 53.0097 36.7282 53.0097 36.613C53.0097 36.5062 53.1326 36.4186 53.2829 36.4186C53.6385 36.4186 53.6314 36.1589 53.2674 35.8539C52.8322 35.489 53.1303 33.6094 53.6556 33.406C53.9944 33.2747 54.6138 33.6273 55.318 34.352C55.7197 34.7654 55.9972 34.9109 56.2289 34.8293C56.6901 34.6667 57.0114 34.2263 56.8941 33.9177C56.836 33.7647 56.9111 33.6596 57.0785 33.6596C57.2339 33.6596 57.4885 33.4757 57.6445 33.2507C57.9787 32.769 58.0243 32.3853 57.7095 32.7032C57.5893 32.8246 57.2559 32.9239 56.9686 32.9239C56.536 32.9239 56.4653 32.863 56.5575 32.5698C56.6426 32.2995 56.5706 32.2018 56.2535 32.156C55.9305 32.1094 55.8135 31.943 55.7277 31.4065C55.6507 30.9253 55.6846 30.7167 55.8396 30.7167C55.9618 30.7167 56.1744 30.5791 56.3119 30.411C56.5398 30.1324 56.4939 30.1145 55.7909 30.2092C55.0851 30.3042 54.9102 30.2352 53.7185 29.39C52.2843 28.3732 52.3342 28.3795 49.6098 28.8645C48.7973 29.0091 48.1425 29.0082 47.2417 28.8614C45.053 28.5046 44.9083 28.4948 44.6302 28.685ZM57.6548 29.8944C57.8552 30.0426 58.2168 30.3503 58.4582 30.5782L58.8974 30.9926L58.4933 31.0528C58.0066 31.1252 58.0742 31.4756 58.623 31.726C58.9595 31.8794 59.0039 32.0081 58.9098 32.5536C58.5935 34.3851 57.0109 35.7749 55.2417 35.7749C54.3284 35.7749 54.0722 35.8964 54.467 36.1427C54.785 36.3412 54.6714 37.628 54.2926 38.1141C53.946 38.559 53.9447 38.6127 54.2442 40.0754C54.4781 41.2172 54.6187 41.5663 54.8284 41.5261C55.0353 41.4863 55.1178 41.1678 55.1579 40.2547C55.1995 39.3065 55.2938 38.9609 55.5831 38.6966C55.95 38.3613 55.9522 38.3628 55.7501 38.8132C55.4596 39.4612 55.911 41.4508 56.3688 41.5402C56.6648 41.598 56.6821 41.49 56.5651 40.3141C56.4409 39.065 56.4516 39.0148 56.9092 38.7121C57.169 38.5403 57.3898 38.2642 57.3998 38.0988C57.4475 37.3074 57.7117 38.8712 57.7277 40.0404C57.7439 41.2227 57.9445 41.7974 58.2378 41.5014C58.2944 41.444 58.4545 40.6805 58.5935 39.8048C58.9593 37.4983 59.1313 37.4372 59.0504 39.6426C59.0061 40.8514 59.0477 41.5687 59.1619 41.5687C59.2621 41.5687 59.4 41.1757 59.4683 40.695C59.5366 40.2144 59.8022 39.0351 60.0583 38.074C60.4408 36.6384 60.5041 36.0888 60.4124 34.9931C60.2968 33.6103 60.4538 33.3168 60.9534 33.9815C61.1012 34.1781 61.1977 34.2138 61.2012 34.0735C61.2045 33.9471 61.371 33.8436 61.5713 33.8436C61.7961 33.8436 61.9357 33.7209 61.9357 33.5233C61.9357 33.0394 60.68 31.2987 60.2332 31.1629C60.0173 31.0976 59.5949 30.81 59.2943 30.5238C58.7649 30.02 57.949 29.607 57.5064 29.619C57.3876 29.6221 57.4545 29.7461 57.6548 29.8944ZM19.854 32.4181C19.6554 32.7468 19.4927 33.1917 19.4924 33.4065C19.4917 33.7849 17.9332 35.7219 16.963 36.5499C16.6534 36.8143 16.5792 36.9596 16.7516 36.9638C16.9089 36.9677 16.6947 37.3022 16.226 37.7845C15.7112 38.3142 15.4731 38.6997 15.5447 38.8881C15.6812 39.2469 15.8178 39.2486 16.6401 38.9017C17.6148 38.4904 17.8961 38.5532 18.7783 39.3781C19.8106 40.3435 20.0236 40.4521 20.6471 40.3318C21.0493 40.2542 21.1406 40.1539 21.0674 39.8708C20.9954 39.5933 21.049 39.5289 21.2971 39.5946C21.4838 39.6437 21.7084 39.5381 21.8281 39.3444C22.0439 38.9953 21.8796 38.9287 20.4045 38.7674C19.9948 38.7226 20.0396 38.6606 20.8704 38.1235C22.2806 37.2119 22.6416 36.7425 22.662 35.7938C22.6751 35.1835 22.5759 34.8655 22.2696 34.5364C21.7279 33.9541 21.7517 33.8436 22.419 33.8436C22.8915 33.8436 22.9691 33.7808 22.92 33.438C22.8396 32.8788 21.4197 31.8203 20.75 31.8203C20.3418 31.8203 20.1294 31.9621 19.854 32.4181ZM67.9449 33.9874C66.677 34.4748 65.9952 34.9573 65.6441 35.6156C65.4081 36.0581 65.2632 36.1679 65.0982 36.0296C64.9443 35.9005 64.755 35.9054 64.4965 36.045C64.1419 36.2367 64.136 36.281 64.3985 36.7935C64.6555 37.2956 64.6528 37.3383 64.3632 37.3383C64.1196 37.3383 64.0978 37.3878 64.2661 37.5577C64.4344 37.7277 64.6053 37.6863 65.0239 37.3738C65.6886 36.8775 65.7611 36.8742 65.7611 37.3409C65.7611 37.5445 65.8372 37.8549 65.9301 38.0306C66.0232 38.2063 66.287 39.0008 66.5165 39.7965C66.7461 40.5922 67.045 41.2864 67.1811 41.3392C67.3171 41.3918 67.5022 41.6305 67.5922 41.8696C67.6833 42.1115 67.9061 42.3045 68.0944 42.3045C68.5322 42.3045 68.7132 42.1154 68.5183 41.8615C68.2219 41.4757 68.1815 40.8931 68.4276 40.5534C68.564 40.3651 68.6757 40.0246 68.6757 39.7971C68.6757 39.1989 68.9271 39.1243 69.8625 39.4449C70.8316 39.7772 72.0044 39.8138 72.5327 39.5284C73.0518 39.2479 73.2425 39.505 73.3841 40.6761C73.4932 41.5787 73.5448 41.6655 74.004 41.7188C74.5262 41.7795 74.6448 41.5996 74.3073 41.2588C74.1987 41.1492 74.1395 40.8635 74.1759 40.6242C74.228 40.2817 74.3118 40.3945 74.5703 41.1551C74.8206 41.8912 75.0055 42.1481 75.3478 42.2347C75.952 42.388 76.0192 42.2728 75.6934 41.6421C75.5414 41.3478 75.4176 40.6351 75.4168 40.0513C75.4156 38.9017 75.505 38.8272 76.451 39.1903C76.749 39.3049 77.3922 39.3369 77.9888 39.2668C78.8497 39.166 79.0481 39.0722 79.2235 38.6837C79.4102 38.2697 79.3643 38.1446 78.7903 37.5031C78.0125 36.6338 77.8813 35.7458 78.4378 35.1166C78.5792 34.9569 78.6947 34.7706 78.6947 34.7027C78.6947 34.4768 78.1201 34.5752 77.5891 34.892C77.0873 35.1912 77.0476 35.1887 76.6503 34.8274C76.0349 34.2677 75.6697 34.1581 73.8674 33.9913C70.2438 33.656 68.8096 33.655 67.9449 33.9874ZM43.1729 35.407C43.1729 35.6599 43.2435 35.8668 43.3297 35.8668C43.416 35.8668 43.4476 35.6599 43.3997 35.407C43.3517 35.1541 43.2811 34.9472 43.2426 34.9472C43.2044 34.9472 43.1729 35.1541 43.1729 35.407ZM64.7098 36.4532C64.7495 36.5733 64.8794 36.7043 64.9984 36.7444C65.1315 36.7892 65.1722 36.705 65.1042 36.526C64.9771 36.1916 64.6005 36.1221 64.7098 36.4532ZM19.3095 39.066C19.3095 39.2068 19.4343 39.3705 19.5869 39.4298C19.8134 39.5173 19.8288 39.4702 19.6716 39.1734C19.4456 38.747 19.3095 38.7067 19.3095 39.066ZM29.378 39.0172C29.2729 39.1233 28.604 39.21 27.8916 39.21C26.4027 39.21 26.2444 39.4307 27.0922 40.3242L27.5884 40.8472L26.819 42.358C26.3958 43.189 26.0481 44.0342 26.0462 44.2361C26.0413 44.8168 24.355 46.5349 23.7903 46.5349C23.2087 46.5349 23.1713 46.8555 23.7269 47.081L24.1368 47.2473L23.7118 47.259C23.2544 47.2715 23.251 47.5903 23.7049 47.8794C23.9084 48.0089 24.2754 47.845 25.1163 47.2487C27.1735 45.79 26.9139 45.8152 28.0765 46.9603C29.0847 47.9536 29.0957 47.9756 28.7539 48.3209C28.5628 48.5138 28.3781 48.9915 28.3433 49.3825C28.2712 50.1931 27.8027 50.6496 27.1992 50.497C26.6703 50.3633 26.5241 50.6425 26.929 51.0127C27.2281 51.2859 27.3278 51.2805 28.2051 50.9439C29.0798 50.6084 29.1662 50.6037 29.2731 50.8847C29.417 51.2636 28.729 51.8689 28.1546 51.8689C27.9318 51.8689 27.6948 51.9243 27.6278 51.992C27.4655 52.1561 28.0438 52.7886 28.3564 52.7886C28.7885 52.7886 30.1382 51.6806 30.4214 51.0931C30.5717 50.7815 30.892 50.396 31.133 50.2365C31.5589 49.9549 31.5652 49.9579 31.3596 50.3458C31.2434 50.5652 31.0667 50.7957 30.967 50.8579C30.8674 50.92 30.7858 51.6236 30.7858 52.4211C30.7858 53.5635 30.8668 54.0099 31.1681 54.5255C31.6173 55.2941 31.6971 55.3131 32.1819 54.7659C32.9118 53.9419 33.0628 53.1927 33.0628 50.3975C33.0628 47.3631 33.0451 47.3076 31.4707 45.3978C29.9524 43.5563 29.7992 43.1463 30.0282 41.5397C30.134 40.7969 30.2788 39.9898 30.3498 39.7463C30.4641 39.3547 30.4316 39.3159 30.0715 39.411C29.7713 39.4903 29.6897 39.4511 29.7615 39.262C29.8868 38.9322 29.6267 38.7661 29.378 39.0172ZM34.1786 39.0461C33.776 39.3433 33.6408 40.4201 33.8284 41.8363C33.9545 42.7878 34.0315 42.9455 34.4156 43.0371C34.9455 43.1632 35.1194 43.5476 34.7174 43.7034C34.2724 43.876 34.3758 44.3163 34.9098 44.5214C35.1741 44.6229 35.4313 44.6645 35.4814 44.6139C35.5317 44.5633 35.8071 44.7211 36.0936 44.9647C36.3804 45.2082 36.9017 45.5122 37.2526 45.6402C37.9748 45.904 38.0708 46.1538 37.507 46.3026C37.1846 46.3877 37.2349 46.4427 37.8258 46.6504C38.6598 46.9436 39.2309 46.9749 39.0742 46.7188C39.0123 46.6177 39.0942 46.5349 39.2564 46.5349C39.4185 46.5349 39.5005 46.4521 39.4385 46.351C39.3766 46.2498 39.08 46.167 38.7795 46.167C38.0408 46.167 38.2175 45.9636 39.3356 45.5268C41.2631 44.7739 42.0553 43.1086 41.1723 41.666C40.8605 41.1565 40.7947 40.8527 40.8878 40.3518C40.9909 39.7965 40.9368 39.6326 40.5209 39.2436C40.2526 38.9926 39.9131 38.8335 39.7664 38.8903C39.6198 38.9471 39.4655 38.9937 39.4236 38.9937C39.2642 38.9937 39.3564 40.1381 39.5444 40.4929C39.8642 41.0966 39.6411 41.0567 38.8443 40.368C38.1776 39.7918 38.0175 39.7338 37.3757 39.8376C36.7203 39.9433 36.6179 39.9023 36.2366 39.3818C35.9022 38.9249 35.685 38.8097 35.1582 38.8097C34.7955 38.8097 34.3545 38.916 34.1786 39.0461ZM44.3569 39.4311C43.4707 39.8234 43.2925 40.1635 43.4293 41.204C43.4958 41.7102 43.4738 42.4338 43.3803 42.8121C43.2869 43.1905 43.1603 43.7823 43.0993 44.1276C42.9896 44.7462 42.9932 44.7502 43.3538 44.421C43.6518 44.1486 43.7215 43.8454 43.7308 42.7818C43.7403 41.7166 43.7762 41.5612 43.9259 41.9366C44.0268 42.1895 44.0611 42.8103 44.0021 43.3161C43.7061 45.8542 44.1243 47.6385 45.0153 47.6385C45.2921 47.6385 45.2887 47.5772 44.9748 46.9559C44.5555 46.1251 44.5296 45.075 44.9169 44.5928C45.0746 44.3965 45.1477 44.3459 45.0792 44.4804C44.8965 44.8401 46.0887 47.0952 46.5817 47.3219C47.2123 47.612 47.2826 47.3543 46.7476 46.7124C46.4848 46.3969 46.2186 45.9336 46.1563 45.6831C46.047 45.2439 46.1676 44.0014 46.3359 43.8315C46.3811 43.786 46.6877 43.8896 47.0176 44.0619C47.4827 44.3047 47.8934 44.3516 48.8493 44.2707L50.0812 44.1664L50.1337 45.7451C50.1752 46.9931 50.2512 47.365 50.4962 47.5206C50.9334 47.7981 51.1097 47.5344 50.8345 47.015C50.6033 46.579 50.7108 44.7828 50.9775 44.6255C51.4398 44.3525 52.0415 45.1344 53.0126 47.2706C53.1286 47.5259 53.9205 47.7849 53.9205 47.5675C53.9205 47.5143 53.7156 47.166 53.4651 46.7933C53.2146 46.4207 53.0086 45.9824 53.0071 45.8194C53.0058 45.6566 52.9507 45.3163 52.8845 45.0634C52.7778 44.6553 52.7976 44.6312 53.0609 44.8492C53.2241 44.9842 53.5627 45.4484 53.8137 45.8806C54.3149 46.744 55.0488 47.3262 55.5208 47.2344C55.7804 47.1838 55.8161 46.9563 55.7674 45.6596C55.7201 44.3976 55.7572 44.1438 55.9888 44.1438C56.142 44.1438 56.3263 44.047 56.3988 43.9286C56.4874 43.7838 56.4312 43.7518 56.2274 43.8309C56.0607 43.8955 55.9243 43.8644 55.9243 43.7617C55.9243 43.6494 55.6784 43.622 55.3047 43.6926L54.6852 43.8099L53.8374 42.0738C52.6053 39.5504 52.4963 39.5054 47.0894 39.2802C45.51 39.2146 44.7517 39.2563 44.3569 39.4311ZM60.9338 39.5455C60.8718 39.6466 60.8875 39.7377 60.9686 39.7478C61.0496 39.7579 60.9267 39.8199 60.6953 39.8857C60.1124 40.0515 60.1689 40.205 61.0651 40.8941C61.9579 41.5803 62.1127 42.0858 61.5794 42.573C61.3746 42.7602 61.207 43.0293 61.207 43.1711C61.207 43.3836 61.2781 43.3786 61.612 43.1426C61.8346 42.9852 62.1732 42.8562 62.3645 42.8562C62.5559 42.8562 62.9718 42.5785 63.289 42.239C64.0712 41.4015 64.5277 41.1847 65.2452 41.3099C65.7057 41.3903 65.7862 41.3684 65.5789 41.2193C65.4287 41.1111 65.1261 41.0213 64.9066 41.0197C64.6871 41.0182 64.4535 40.9288 64.3876 40.821C64.3216 40.7133 64.0338 40.65 63.7482 40.6801C63.3884 40.7182 63.072 40.5874 62.7188 40.2547C61.8719 39.4568 61.1609 39.1743 60.9338 39.5455ZM40.4692 40.2812C40.4692 40.5341 40.5105 40.6377 40.561 40.5111C40.6116 40.3848 40.6116 40.1778 40.561 40.0513C40.5105 39.9249 40.4692 40.0283 40.4692 40.2812ZM71.232 42.372C71.1285 42.4764 71.0438 42.648 71.0438 42.7531C71.0438 42.8583 70.9028 43.2887 70.7303 43.7097C70.4398 44.4191 70.3549 44.4833 69.5694 44.5885C68.5347 44.7272 68.2387 44.6248 67.9733 44.0365C67.6773 43.3805 67.2771 43.2962 66.8597 43.802C66.4001 44.359 66.3985 44.9877 66.8541 45.9397C67.0545 46.3585 67.2184 46.7672 67.2186 46.8479C67.2188 46.9287 67.649 47.2344 68.1749 47.5272C68.7009 47.82 69.2747 48.1846 69.4499 48.3374C69.79 48.6337 69.8911 49.4778 69.5865 49.4778C69.4863 49.4778 69.4044 49.558 69.4044 49.656C69.4044 49.7539 69.5262 49.7868 69.6752 49.7291C69.8244 49.6713 70.196 49.7121 70.5014 49.8196C70.8292 49.9349 71.0121 49.9426 70.9482 49.8383C70.8888 49.7412 70.9728 49.6617 71.1349 49.6617C71.297 49.6617 71.379 49.579 71.3171 49.4778C71.2551 49.3767 70.9635 49.2939 70.6688 49.2939C70.2514 49.2939 70.133 49.2111 70.133 48.9196C70.133 48.3569 70.6516 47.6692 71.3158 47.3508C72.1501 46.9511 72.5787 46.0695 72.4592 44.9989C72.4068 44.5286 72.4356 44.1438 72.5235 44.1438C72.6113 44.1438 72.6833 44.0266 72.6833 43.8831C72.6833 43.7399 72.7811 43.5898 72.9006 43.5495C73.1806 43.4553 72.0494 42.1818 71.6858 42.1818C71.5399 42.1818 71.3357 42.2673 71.232 42.372ZM76.5714 43.2425C76.3236 43.4927 75.9566 43.6288 75.5291 43.6288C75.0022 43.6288 74.8693 43.6992 74.8693 43.9782C74.8693 44.1704 74.7512 44.3277 74.6068 44.3277C74.2222 44.3277 74.0761 44.6715 74.3297 44.9799C74.6525 45.3726 74.4186 46.2426 73.7337 47.1974C73.4065 47.6534 72.9544 48.2824 72.7288 48.5955C72.4077 49.0413 72.3204 49.407 72.3255 50.2868C72.3343 51.8196 72.7409 53.4165 73.316 54.178C73.9798 55.0567 74.3404 55.9728 74.6151 57.4789C75.0361 59.7856 75.0756 59.7607 73.2588 58.3294C72.3731 57.6315 71.3043 56.8414 70.8837 56.5732C70.4633 56.3052 70.0334 55.8614 69.9284 55.5868C69.8237 55.3123 69.6239 54.8567 69.4843 54.5746C69.2646 54.13 69.2668 54.0472 69.4996 53.9571C69.9798 53.771 69.7844 53.3843 69.1497 53.2641C68.7003 53.1789 68.5008 53.0272 68.4221 52.7102C68.2782 52.1312 67.4428 51.836 66.6072 52.0691C66.262 52.1653 65.9369 52.3562 65.8848 52.4932C65.8327 52.6302 65.4148 52.7993 64.9563 52.8686C63.5141 53.0871 63.3411 54.267 64.6973 54.6358C65.3307 54.808 65.4179 54.8919 65.3245 55.2377C65.0671 56.1895 64.9942 57.5252 65.1929 57.6492C65.3261 57.7323 65.3398 57.8867 65.2317 58.0904C65.1403 58.2628 65.0711 58.6095 65.0778 58.8609C65.0844 59.1124 64.978 59.7113 64.8412 60.1915C64.6512 60.8597 64.639 61.2399 64.7894 61.8094C65.0629 62.8436 64.5011 64.0063 63.5832 64.3059C62.8172 64.5559 62.6931 64.8323 63.2194 65.1167C63.505 65.271 63.6693 65.2745 63.8132 65.1292C63.9227 65.0186 64.1462 64.9281 64.3098 64.9281C64.4734 64.9281 64.8745 64.5921 65.2013 64.1816C65.6318 63.6408 65.9094 63.45 66.2085 63.4896C66.4355 63.5196 66.7444 63.4409 66.8951 63.3149C67.1235 63.1232 67.3536 63.2521 68.2906 64.0964C68.9078 64.6522 69.6191 65.1595 69.8712 65.2233C70.5043 65.3837 71.1081 66.5975 70.9444 67.3801C70.7708 68.2091 70.1809 68.7902 69.5093 68.7935C69.2011 68.7951 68.826 68.8794 68.6757 68.9807C68.4449 69.1365 68.4821 69.2362 68.9143 69.6225C69.8033 70.4163 70.0299 70.2756 73.6606 66.6755C74.6809 65.6639 75.8285 64.3638 76.2111 63.7865C76.868 62.7951 76.8945 62.7003 76.6907 62.0768C76.5122 61.5307 76.5251 61.3102 76.7652 60.7996C76.9246 60.46 77.0552 59.8604 77.0552 59.467C77.0552 58.4887 76.5789 56.7214 76.0644 55.7924L75.6387 55.0234L76.2103 54.7953C76.5248 54.6699 76.9268 54.4429 77.1037 54.2906C77.3928 54.0419 77.4529 54.0496 77.6979 54.3669C77.9595 54.7057 77.9997 54.6866 78.7005 53.8922C79.4212 53.075 79.8337 52.1349 79.6288 51.777C79.5709 51.6758 79.547 51.4481 79.576 51.2712C79.6499 50.8176 79.3773 50.8713 78.8768 51.4091C78.3276 51.9995 78.003 51.9912 77.7733 51.3813C77.6285 50.9962 77.6755 50.6846 77.997 49.9012C78.4996 48.6773 78.7 48.5041 79.7563 48.3803C80.4238 48.3023 80.6506 48.1813 80.8693 47.7869C81.2058 47.1803 81.0078 46.9136 80.5389 47.342C80.3032 47.5574 80.0445 47.6183 79.7181 47.5355C79.1752 47.3979 79.1219 47.2318 79.5144 46.9028C79.7239 46.7271 79.8476 46.724 80.0447 46.8891C80.3977 47.1849 80.5895 46.833 80.3362 46.3548C80.0864 45.8838 79.8919 45.888 79.0991 46.3828L78.4588 46.7825L77.848 46.1095C77.2099 45.4065 77.1244 44.9987 77.4068 44.0049C77.5369 43.5471 77.5126 43.3444 77.3026 43.1323C76.9654 42.7917 77.0272 42.7825 76.5714 43.2425ZM61.5085 44.6641C61.1764 45.0346 61.091 46.4407 61.3892 46.6269C61.4894 46.6894 61.5713 46.824 61.5713 46.9259C61.5713 47.1689 60.8868 46.9506 60.2672 46.5101C60.0007 46.3208 59.6728 46.2086 59.5386 46.2612C59.2233 46.3843 59.0892 48.3742 59.3963 48.3742C59.512 48.3742 59.5599 48.4971 59.5027 48.6474C59.3756 48.9821 59.9015 49.2928 60.603 49.297C61.17 49.3005 62.2049 50.2121 61.799 50.3504C61.5794 50.4254 61.4677 50.9493 61.6715 50.9493C61.8668 50.9493 62.9458 50.3366 63.5012 49.9104C63.8112 49.6724 64.1597 49.4778 64.2754 49.4778C64.4069 49.4778 64.486 49.1289 64.486 48.549C64.486 47.7365 64.4062 47.5373 63.8484 46.9574C63.1196 46.1996 63.0771 46.0993 63.5495 46.2507C64.0167 46.4004 64.3466 45.9434 64.1992 45.3506C63.9701 44.4287 62.1382 43.9613 61.5085 44.6641ZM41.5789 46.8551C41.4538 46.8982 41.3503 47.03 41.3492 47.1479C41.3481 47.266 41.0703 47.6343 40.7319 47.9663C40.0823 48.6034 39.7118 49.6627 39.7118 50.8823C39.7118 51.8814 38.2816 53.2446 36.4937 53.9496C34.7917 54.6207 32.7896 56.392 32.7896 57.2265C32.7896 58.4601 35.2056 62.1504 36.023 62.1651C36.5733 62.1748 36.0612 60.6467 34.8832 58.7622L34.1957 57.6628L34.8134 58.2093C35.8707 59.1446 36.0687 59.4326 36.0645 60.0284C36.0585 60.8978 37.3014 63.164 37.9411 63.45C38.3284 63.6231 38.5195 63.6305 38.67 63.4786C38.9102 63.236 38.6937 62.9709 38.1779 62.8767C37.6466 62.7798 36.9793 61.3479 36.9793 60.3044V59.4171L38.1178 60.5299C39.2143 61.6017 39.8056 61.9852 40.3612 61.9852C40.8328 61.9852 40.6344 61.4818 40.1216 61.3771C39.2871 61.207 38.4776 60.232 38.0732 58.91C37.5331 57.1443 37.5462 57.1025 38.7166 56.8653C39.2715 56.7527 40.2185 56.3688 40.8213 56.0122C41.4241 55.6555 41.9775 55.3636 42.0511 55.3636C42.177 55.3636 42.6701 56.1507 43.798 58.1519C44.3793 59.1832 44.609 59.2932 45.4454 58.9404C46.1328 58.6503 46.3006 58.3066 45.7548 58.3066C45.572 58.3066 45.2433 58.1142 45.0246 57.8791C44.5686 57.3891 43.5461 54.6049 43.5408 53.8388C43.5388 53.5567 43.37 52.9948 43.1658 52.5905C42.8931 52.051 42.1105 49.8505 42.0823 49.5442C42.0671 49.3796 43.4426 49.3283 43.7285 49.4828C44.1482 49.7096 44.6302 49.4522 44.6302 49.0011C44.6302 48.7608 42.7896 47.4546 42.451 47.4546C42.3584 47.4546 42.1755 47.3021 42.0447 47.1158C41.9138 46.9294 41.7043 46.8121 41.5789 46.8551ZM56.6777 48.3755C56.6597 48.5776 56.4185 48.6571 55.7877 48.6687C52.6315 48.7261 51.7544 48.8295 51.6704 49.1537C51.54 49.6572 50.3324 49.5626 48.7578 48.926C47.0316 48.2282 46.634 48.214 46.634 48.851C46.634 49.1133 46.795 49.5345 46.9917 49.7872C47.3191 50.2071 47.3258 50.2831 47.0719 50.6745C46.9192 50.9097 46.6762 51.1481 46.532 51.204C46.3877 51.2599 46.2696 51.3909 46.2696 51.4954C46.2696 51.7328 47.5832 51.7301 49.3664 51.4887C50.8652 51.2857 53.045 51.431 52.6228 51.7058C52.4282 51.8325 52.4636 51.8943 52.7812 51.9822C53.1503 52.0843 53.0767 52.1824 52.0344 52.9792C50.9882 53.7787 49.5814 55.3762 48.7655 56.6907C48.4006 57.2788 48.3625 57.8765 48.6833 57.9852C48.8624 58.0459 48.8578 58.1635 48.6618 58.5348C48.5248 58.7947 48.4682 59.0978 48.5359 59.2088C48.8687 59.7525 51.9424 59.131 53.9296 58.118C54.52 57.8171 55.2146 57.5708 55.4732 57.5708C56.2192 57.5708 58.4746 57.0069 58.4746 56.8204C58.4746 56.7273 58.0583 56.6512 57.5495 56.6512H56.6247L57.396 56.0534C57.8204 55.7245 58.3299 55.2342 58.5287 54.9634C58.9868 54.3391 59.1391 52.8086 58.8424 51.8088C58.3941 50.2983 58.2274 49.9943 57.5457 49.441C57.1655 49.1326 56.8203 48.7042 56.7784 48.4892C56.7367 48.2742 56.6914 48.223 56.6777 48.3755ZM59.9319 48.5582C59.9319 48.6593 60.0139 48.7421 60.114 48.7421C60.2142 48.7421 60.2962 48.6593 60.2962 48.5582C60.2962 48.457 60.2142 48.3742 60.114 48.3742C60.0139 48.3742 59.9319 48.457 59.9319 48.5582ZM78.6491 52.4419C78.3737 52.6495 78.1482 52.9414 78.1482 53.0906C78.1482 53.4463 78.4045 53.2744 78.8809 52.5991C79.3339 51.9565 79.3128 51.942 78.6491 52.4419ZM51.4746 56.7744C51.3423 57.1226 51.7371 57.4579 51.9848 57.2078C52.1739 57.0168 52.0069 56.4672 51.7597 56.4672C51.6671 56.4672 51.5389 56.6056 51.4746 56.7744ZM43.9055 57.3019C43.9033 57.407 44.1514 57.7794 44.4569 58.1296C44.7624 58.4798 44.9287 58.6009 44.8264 58.3985C44.5447 57.8412 43.9101 57.0854 43.9055 57.3019ZM43.7807 71.9976C43.8359 72.1429 43.7831 72.3018 43.6636 72.3509C43.5439 72.4002 43.5895 72.4469 43.7649 72.4548C43.9671 72.464 44.0837 72.3347 44.0837 72.1015C44.0837 71.8992 43.993 71.7336 43.882 71.7336C43.7711 71.7336 43.7255 71.8524 43.7807 71.9976ZM38.2832 73.2051C38.2832 73.458 38.3246 73.5615 38.375 73.435C38.4257 73.3086 38.4257 73.1017 38.375 72.9752C38.3246 72.8488 38.2832 72.9522 38.2832 73.2051ZM37.7369 75.2031C37.2571 76.9711 37.2515 77.1845 37.6828 77.2983C37.99 77.3794 38.0333 77.2236 38.1435 75.6391C38.2106 74.6773 38.235 73.8597 38.1978 73.8222C38.1606 73.7848 37.9532 74.4062 37.7369 75.2031ZM48.2394 78.113C48.3707 78.1661 48.5279 78.1595 48.5884 78.0984C48.6489 78.0374 48.5414 77.9939 48.3494 78.0019C48.1372 78.0107 48.094 78.0543 48.2394 78.113Z" fill="white"/>
</g>
</svg>
