<svg width="30" height="25" viewBox="0 0 30 25" fill="none" xmlns="http://www.w3.org/2000/svg">
<g filter="url(#filter0_d_1325_3450)">
<path d="M25.042 0.833496H5.70866C4.37949 0.833496 3.29199 1.921 3.29199 3.25016V17.7502C3.29199 19.0793 4.37949 20.1668 5.70866 20.1668H25.042C26.3712 20.1668 27.4587 19.0793 27.4587 17.7502V3.25016C27.4587 1.921 26.3712 0.833496 25.042 0.833496ZM24.5587 5.96891L16.6562 10.911C15.8707 11.4064 14.8799 11.4064 14.0945 10.911L6.19199 5.96891C6.07083 5.9009 5.96473 5.809 5.88011 5.69879C5.79549 5.58859 5.73411 5.46235 5.69969 5.32774C5.66527 5.19312 5.65852 5.05292 5.67985 4.91562C5.70118 4.77832 5.75015 4.64677 5.82379 4.52894C5.89743 4.41112 5.99422 4.30946 6.10829 4.23012C6.22236 4.15078 6.35134 4.09541 6.48742 4.06736C6.62351 4.03931 6.76388 4.03916 6.90002 4.06693C7.03617 4.0947 7.16526 4.14981 7.27949 4.22891L15.3753 9.29183L23.4712 4.22891C23.5854 4.14981 23.7145 4.0947 23.8506 4.06693C23.9868 4.03916 24.1271 4.03931 24.2632 4.06736C24.3993 4.09541 24.5283 4.15078 24.6424 4.23012C24.7564 4.30946 24.8532 4.41112 24.9269 4.52894C25.0005 4.64677 25.0495 4.77832 25.0708 4.91562C25.0921 5.05292 25.0854 5.19312 25.051 5.32774C25.0165 5.46235 24.9552 5.58859 24.8705 5.69879C24.7859 5.809 24.6798 5.9009 24.5587 5.96891Z" fill="#F0F0F5"/>
</g>
<defs>
<filter id="filter0_d_1325_3450" x="-0.708008" y="0.833496" width="32.167" height="27.3335" filterUnits="userSpaceOnUse" color-interpolation-filters="sRGB">
<feFlood flood-opacity="0" result="BackgroundImageFix"/>
<feColorMatrix in="SourceAlpha" type="matrix" values="0 0 0 0 0 0 0 0 0 0 0 0 0 0 0 0 0 0 127 0" result="hardAlpha"/>
<feOffset dy="4"/>
<feGaussianBlur stdDeviation="2"/>
<feComposite in2="hardAlpha" operator="out"/>
<feColorMatrix type="matrix" values="0 0 0 0 0 0 0 0 0 0 0 0 0 0 0 0 0 0 0.25 0"/>
<feBlend mode="normal" in2="BackgroundImageFix" result="effect1_dropShadow_1325_3450"/>
<feBlend mode="normal" in="SourceGraphic" in2="effect1_dropShadow_1325_3450" result="shape"/>
</filter>
</defs>
</svg>
