<svg width="187" height="99" viewBox="0 0 187 99" fill="none" xmlns="http://www.w3.org/2000/svg">
<path d="M4.12 79.28L8.42 89.88L6.74 89.54L10.64 79.28H14.08L7.36 94.68L0.64 79.28H4.12ZM21.0266 79.28H31.0666V82.08H23.9266V85.22H30.2466V88.02H23.9266V91.2H31.3466V94H21.0266V79.28ZM37.7469 79.28H47.6669V82.08H44.0869V94H41.1869V82.08H37.7469V79.28ZM54.8656 94V78.68H54.8856L63.0656 90.28L61.8256 90L69.9856 78.68H70.0256V94H67.1256V85.22L67.3056 86.72L62.3256 93.8H62.2856L57.1656 86.72L57.6656 85.34V94H54.8656ZM78.2305 79.28H88.2705V82.08H81.1305V85.22H87.4505V88.02H81.1305V91.2H88.5505V94H78.2305V79.28ZM95.9508 94V79.28H100.351C101.831 79.28 103.091 79.5 104.131 79.94C105.171 80.38 106.004 80.9667 106.631 81.7C107.271 82.4333 107.737 83.2533 108.031 84.16C108.324 85.0667 108.471 85.98 108.471 86.9C108.471 87.9933 108.271 88.98 107.871 89.86C107.484 90.7267 106.951 91.4733 106.271 92.1C105.591 92.7133 104.804 93.1867 103.911 93.52C103.017 93.84 102.071 94 101.071 94H95.9508ZM98.8508 91.2H100.571C101.304 91.2 101.971 91.1067 102.571 90.92C103.171 90.72 103.684 90.4333 104.111 90.06C104.551 89.6867 104.884 89.22 105.111 88.66C105.351 88.0867 105.471 87.4333 105.471 86.7C105.471 85.74 105.311 84.96 104.991 84.36C104.684 83.7467 104.297 83.2733 103.831 82.94C103.377 82.6067 102.911 82.38 102.431 82.26C101.951 82.1267 101.544 82.06 101.211 82.06H98.8508V91.2ZM115.78 94V78.68H115.8L123.98 90.28L122.74 90L130.9 78.68H130.94V94H128.04V85.22L128.22 86.72L123.24 93.8H123.2L118.08 86.72L118.58 85.34V94H115.78ZM137.485 94L144.125 78.7H144.285L150.925 94H147.565L143.325 83.24L145.425 81.8L140.345 94H137.485ZM142.025 88.68H146.445L147.465 91.12H141.125L142.025 88.68ZM170.651 94.6L159.491 84.52L160.351 85L160.411 94H157.471V78.7H157.591L168.511 88.74L167.871 88.46L167.811 79.28H170.731V94.6H170.651Z" fill="#F0F0F5"/>
<circle cx="93.7031" cy="32.7031" r="32.7031" fill="#F0F0F5"/>
<path d="M113.879 25.9568C113.416 24.6887 112.648 23.7744 111.656 23.3139L111.642 23.3081C111.191 23.1042 110.71 22.9998 110.226 23.0005H110.172C107.902 23.0399 105.584 25.2655 104.406 28.5391C103.541 30.933 103.442 33.5076 104.141 35.4266C104.602 36.6956 105.372 37.6099 106.368 38.0704L106.379 38.0752C106.831 38.279 107.311 38.3834 107.796 38.3829C110.088 38.3829 112.43 36.1572 113.63 32.8404C114.484 30.4494 114.578 27.8767 113.879 25.9568ZM104.807 40.0759C103.498 39.1683 102.26 38.3098 101.452 36.7677C99.2216 32.4991 97.8747 29.9226 94.3434 29.9226C90.8121 29.9226 89.4619 32.4991 87.2266 36.7677C86.4165 38.3117 85.1763 39.1712 83.8628 40.0826C82.3567 41.1267 80.8007 42.2054 80.1289 44.3282C79.8678 45.0934 79.7362 45.9093 79.7414 46.7317C79.7414 50.1879 82.075 53 84.9421 53C86.4215 53 87.9958 52.4087 89.6619 51.7829C91.2638 51.181 92.9199 50.559 94.3517 50.559C95.7836 50.559 97.4355 51.181 99.0315 51.7829C100.694 52.4049 102.261 52.9962 103.745 52.9962C106.608 52.9962 108.937 50.1841 108.937 46.7278C108.939 45.9048 108.805 45.089 108.541 44.3243C107.869 42.1996 106.313 41.12 104.807 40.0759ZM85.5088 26.5432C86.5006 27.9786 87.7591 28.7689 89.0527 28.7689C89.2292 28.7689 89.4056 28.7538 89.5802 28.7237C92.2781 28.2661 93.9592 24.4685 93.4074 20.0711C93.1766 18.2223 92.5598 16.5005 91.6764 15.2237C90.6862 13.7912 89.426 13.0019 88.1334 13.0019C87.9568 13.0019 87.7804 13.017 87.6058 13.0471C84.9079 13.5047 83.2269 17.3023 83.7786 21.6997C84.0086 23.5456 84.6254 25.2655 85.5088 26.5432ZM99.1074 28.7237C99.282 28.7538 99.4584 28.7689 99.635 28.7689C100.929 28.7689 102.187 27.9786 103.179 26.5432C104.061 25.2655 104.675 23.5456 104.908 21.6978C105.46 17.3023 103.779 13.5047 101.081 13.0452C100.906 13.0151 100.73 13 100.553 13C99.2607 13.0019 98.0006 13.7912 97.0104 15.2237C96.127 16.5005 95.5102 18.2223 95.2802 20.073C94.7284 24.4685 96.4095 28.2661 99.1074 28.7237ZM82.3076 38.0752L82.3192 38.0704C83.3135 37.6099 84.0828 36.6966 84.5437 35.4285C85.2421 33.5057 85.1438 30.934 84.2812 28.5401C83.0868 25.2271 80.7457 23.0005 78.4562 23.0005C77.9714 22.9997 77.4907 23.104 77.0393 23.3081L77.0277 23.3129C76.0359 23.7696 75.2666 24.6868 74.8057 25.9549C74.1073 27.8777 74.2056 30.4494 75.0682 32.8433C76.2626 36.1563 78.6037 38.3829 80.8932 38.3829C81.3772 38.3833 81.8569 38.279 82.3076 38.0752Z" fill="#319E8F"/>
<path d="M87.0836 42.131L84.3438 42.9825L87.7387 45.2533L89.1682 43.5502L91.7889 49L95.839 40.9389L98.2811 46.5022L100.783 44.1747L103.344 42.9825L99.7701 42.131L98.2811 42.9825L95.0648 36L91.7889 44.1747L89.1682 39.1223L87.0836 42.131Z" fill="#F0F0F5"/>
</svg>
