<svg width="68" height="68" viewBox="0 0 68 68" fill="none" xmlns="http://www.w3.org/2000/svg">
<circle cx="34" cy="34" r="34" fill="#319E8F"/>
<path d="M50.4884 30.3493C50.088 29.3399 49.4227 28.6122 48.5641 28.2456L48.5525 28.241C48.1617 28.0787 47.7456 27.9956 47.3259 27.9961H47.2797C45.3142 28.0275 43.3076 29.7991 42.2873 32.4048C41.5391 34.3103 41.4532 36.3597 42.0579 37.8871C42.4576 38.8973 43.1243 39.625 43.9866 39.9916L43.996 39.9954C44.3868 40.1577 44.8029 40.2407 45.2226 40.2403C47.2068 40.2403 49.2344 38.4687 50.2734 35.8286C51.0123 33.9254 51.0938 31.8775 50.4884 30.3493ZM42.6351 41.5879C41.5016 40.8655 40.4301 40.1822 39.7302 38.9547C37.7993 35.5569 36.6333 33.506 33.5761 33.506C30.5189 33.506 29.35 35.5569 27.4148 38.9547C26.7135 40.1837 25.6398 40.8678 24.5027 41.5933C23.1988 42.4244 21.8517 43.283 21.2701 44.9727C21.0441 45.5818 20.9302 46.2313 20.9346 46.8858C20.9346 49.637 22.955 51.8754 25.4371 51.8754C26.7178 51.8754 28.0808 51.4047 29.5232 50.9065C30.91 50.4275 32.3437 49.9324 33.5833 49.9324C34.8229 49.9324 36.253 50.4275 37.6348 50.9065C39.0743 51.4017 40.4308 51.8723 41.7151 51.8723C44.1937 51.8723 46.2104 49.6339 46.2104 46.8828C46.2124 46.2277 46.0961 45.5783 45.8676 44.9696C45.2861 43.2784 43.9382 42.419 42.6351 41.5879ZM25.9277 30.8161C26.7864 31.9587 27.8759 32.5877 28.9957 32.5877C29.1486 32.5877 29.3013 32.5757 29.4525 32.5517C31.7881 32.1875 33.2435 29.1647 32.7658 25.6644C32.5659 24.1928 32.032 22.8222 31.2672 21.8059C30.41 20.6657 29.319 20.0374 28.1999 20.0374C28.047 20.0374 27.8943 20.0494 27.7431 20.0734C25.4075 20.4377 23.9521 23.4604 24.4298 26.9607C24.6289 28.43 25.1629 29.7991 25.9277 30.8161ZM37.7005 32.5517C37.8517 32.5757 38.0043 32.5877 38.1572 32.5877C39.2778 32.5877 40.3666 31.9587 41.2252 30.8161C41.9893 29.7991 42.5204 28.43 42.7224 26.9592C43.2001 23.4604 41.7447 20.4377 39.4091 20.0719C39.2579 20.0479 39.1052 20.0359 38.9524 20.0359C37.8332 20.0374 36.7423 20.6657 35.8851 21.8059C35.1202 22.8222 34.5863 24.1928 34.3871 25.6659C33.9095 29.1647 35.3648 32.1875 37.7005 32.5517ZM23.1563 39.9954L23.1664 39.9916C24.0272 39.625 24.6932 38.8981 25.0922 37.8887C25.6968 36.3581 25.6117 34.3111 24.8649 32.4056C23.8309 29.7685 21.8041 27.9961 19.822 27.9961C19.4023 27.9955 18.9862 28.0786 18.5954 28.241L18.5853 28.2448C17.7266 28.6083 17.0607 29.3384 16.6616 30.3478C16.057 31.8783 16.1421 33.9254 16.8889 35.8309C17.9229 38.468 19.9497 40.2403 21.9318 40.2403C22.3508 40.2407 22.7662 40.1576 23.1563 39.9954Z" fill="#F0F0F5"/>
<path d="M27.1169 42.2627L24.5439 42.9099L27.7322 44.6359L29.0746 43.3414L31.5356 47.4838L35.3391 41.3565L37.6324 45.5852L39.9816 43.8161L42.3868 42.9099L39.0308 42.2627L37.6324 42.9099L34.612 37.6025L31.5356 43.8161L29.0746 39.9758L27.1169 42.2627Z" fill="#319E8F"/>
</svg>
