<svg width="32" height="33" viewBox="0 0 32 33" fill="none" xmlns="http://www.w3.org/2000/svg">
<g id="whatsapp-67ce5c9c.svg">
<path id="Vector" d="M16.0013 3.16675C23.3653 3.16675 29.3347 9.13608 29.3347 16.5001C29.3347 23.8641 23.3653 29.8334 16.0013 29.8334C13.645 29.8372 11.3302 29.2136 9.29465 28.0267L2.67332 29.8334L4.47599 23.2094C3.28811 21.1732 2.66405 18.8574 2.66799 16.5001C2.66799 9.13608 8.63732 3.16675 16.0013 3.16675ZM11.4573 10.2334L11.1907 10.2441C11.018 10.2546 10.8493 10.2999 10.6947 10.3774C10.55 10.4593 10.418 10.5617 10.3027 10.6814C10.1427 10.8321 10.052 10.9627 9.95465 11.0894C9.46148 11.7306 9.19595 12.5178 9.19999 13.3267C9.20265 13.9801 9.37332 14.6161 9.63999 15.2107C10.1853 16.4134 11.0827 17.6867 12.2667 18.8667C12.552 19.1507 12.832 19.4361 13.1333 19.7014C14.6045 20.9967 16.3577 21.9308 18.2533 22.4294L19.0107 22.5454C19.2573 22.5587 19.504 22.5401 19.752 22.5281C20.1403 22.508 20.5195 22.4029 20.8627 22.2201C21.0373 22.1301 21.2077 22.0323 21.3733 21.9267C21.3733 21.9267 21.4307 21.8894 21.54 21.8067C21.72 21.6734 21.8307 21.5787 21.98 21.4227C22.0907 21.3081 22.1867 21.1734 22.26 21.0201C22.364 20.8027 22.468 20.3881 22.5107 20.0427C22.5427 19.7787 22.5333 19.6347 22.5293 19.5454C22.524 19.4027 22.4053 19.2547 22.276 19.1921L21.5 18.8441C21.5 18.8441 20.34 18.3387 19.6307 18.0161C19.5564 17.9837 19.4769 17.9651 19.396 17.9614C19.3048 17.952 19.2126 17.9623 19.1257 17.9915C19.0387 18.0207 18.9591 18.0682 18.892 18.1307C18.8853 18.1281 18.796 18.2041 17.832 19.3721C17.7767 19.4464 17.7004 19.5026 17.6131 19.5335C17.5257 19.5644 17.4311 19.5685 17.3413 19.5454C17.2545 19.5221 17.1694 19.4927 17.0867 19.4574C16.9213 19.3881 16.864 19.3614 16.7507 19.3134C15.9854 18.9795 15.2769 18.5283 14.6507 17.9761C14.4827 17.8294 14.3267 17.6694 14.1667 17.5147C13.6421 17.0124 13.185 16.4441 12.8067 15.8241L12.728 15.6974C12.6715 15.6123 12.6258 15.5205 12.592 15.4241C12.5413 15.2281 12.6733 15.0707 12.6733 15.0707C12.6733 15.0707 12.9973 14.7161 13.148 14.5241C13.2947 14.3374 13.4187 14.1561 13.4987 14.0267C13.656 13.7734 13.7053 13.5134 13.6227 13.3121C13.2493 12.4001 12.8627 11.4921 12.4653 10.5907C12.3867 10.4121 12.1533 10.2841 11.9413 10.2587C11.8693 10.2507 11.7973 10.2427 11.7253 10.2374C11.5463 10.2285 11.3668 10.2303 11.188 10.2427L11.456 10.2321L11.4573 10.2334Z" fill="#01B09B"/>
</g>
</svg>
